<!-- ICONS FROM GAME-ICONS.NET http://game-icons.net/about.html -->
<svg xmlns="http://www.w3.org/2000/svg" viewBox="0 0 512 512">
  <path d="M 367.57342,56.686827 C 314.12724,82.488929 275.25666,111.09493 254.41265,138.92664 l 12.87808,75.17749 75.98157,-27.81106 C 360.79282,155.87576 370.24857,110.97 367.57342,56.686827 z M 193.19865,97.7495 c -17.82767,34.08516 -28.999,66.27596 -34.04942,94.79416 l 40.03046,95.45959 35.24905,-55.38003 -17.58075,-102.39791 0.0564,0.0139 C 209.81273,119.62895 201.95634,108.77615 193.20234,97.750464 z M 420.696,211.73926 c -17.55938,-1.11227 -34.27563,-1.47948 -50.14299,-1.20589 l -104.26658,38.07974 -35.24985,55.38318 118.86524,-19.79879 c 23.90265,-18.30406 48.08841,-42.64959 70.79188,-72.45713 z M 114.93359,204.33719 C 73.386982,298.70216 91.739613,364.25495 138.8692,382.66183 l 37.7869,-59.26079 -42.66217,-101.56271 c -6.00771,-5.79536 -12.35532,-11.61588 -19.06263,-17.50002 z m 245.22242,122.8786 c -12.49852,-2.81645 -24.57627,-5.15986 -36.24943,-7.05943 l -115.40581,19.28338 -37.35432,58.58559 c 41.27709,30.71037 116.79742,12.35017 189.0058,-70.81046 z" />
</svg>
